<svg width="980" height="760" viewBox="0 0 980 760" fill="none" xmlns="http://www.w3.org/2000/svg">
  <defs>
    <linearGradient id="archbg" x1="46" y1="42" x2="880" y2="690" gradientUnits="userSpaceOnUse">
      <stop stop-color="#112435"/>
      <stop offset="1" stop-color="#091521"/>
    </linearGradient>
    <linearGradient id="archline" x1="0" y1="0" x2="1" y2="1">
      <stop stop-color="#1CD7B5"/>
      <stop offset="1" stop-color="#69D0FF"/>
    </linearGradient>
  </defs>
  <rect x="28" y="26" width="924" height="708" rx="34" fill="url(#archbg)" stroke="#284052"/>
  <path d="M192 180H338" stroke="url(#archline)" stroke-width="6" stroke-linecap="round"/>
  <path d="M470 180H616" stroke="url(#archline)" stroke-width="6" stroke-linecap="round"/>
  <path d="M746 180H846V546H746" stroke="url(#archline)" stroke-width="6" stroke-linecap="round"/>
  <path d="M616 544H470" stroke="url(#archline)" stroke-width="6" stroke-linecap="round"/>
  <path d="M338 544H192" stroke="url(#archline)" stroke-width="6" stroke-linecap="round"/>
  <rect x="88" y="120" width="148" height="120" rx="24" fill="#0E2231" stroke="#2A4B60"/>
  <rect x="366" y="120" width="148" height="120" rx="24" fill="#0E2231" stroke="#2A4B60"/>
  <rect x="642" y="120" width="148" height="120" rx="24" fill="#0E2231" stroke="#2A4B60"/>
  <rect x="642" y="484" width="148" height="120" rx="24" fill="#0E2231" stroke="#2A4B60"/>
  <rect x="366" y="484" width="148" height="120" rx="24" fill="#0E2231" stroke="#2A4B60"/>
  <rect x="88" y="484" width="148" height="120" rx="24" fill="#0E2231" stroke="#2A4B60"/>
  <text x="120" y="164" fill="#EAF5FF" font-family="Sora, Arial" font-size="22" font-weight="700">Input layer</text>
  <text x="112" y="194" fill="#AFC6D7" font-family="Manrope, Arial" font-size="16">API FastAPI</text>
  <text x="112" y="220" fill="#AFC6D7" font-family="Manrope, Arial" font-size="16">Streamlit UI</text>
  <text x="384" y="164" fill="#EAF5FF" font-family="Sora, Arial" font-size="22" font-weight="700">Schemas</text>
  <text x="384" y="194" fill="#AFC6D7" font-family="Manrope, Arial" font-size="16">Validation</text>
  <text x="384" y="220" fill="#AFC6D7" font-family="Manrope, Arial" font-size="16">Dataset shaping</text>
  <text x="664" y="164" fill="#EAF5FF" font-family="Sora, Arial" font-size="22" font-weight="700">Service</text>
  <text x="664" y="194" fill="#AFC6D7" font-family="Manrope, Arial" font-size="16">Decision routing</text>
  <text x="664" y="220" fill="#AFC6D7" font-family="Manrope, Arial" font-size="16">Monitoring hooks</text>
  <text x="664" y="528" fill="#EAF5FF" font-family="Sora, Arial" font-size="22" font-weight="700">Outputs</text>
  <text x="664" y="558" fill="#AFC6D7" font-family="Manrope, Arial" font-size="16">API response</text>
  <text x="664" y="584" fill="#AFC6D7" font-family="Manrope, Arial" font-size="16">Exports and reports</text>
  <text x="386" y="528" fill="#EAF5FF" font-family="Sora, Arial" font-size="22" font-weight="700">Inference</text>
  <text x="386" y="558" fill="#AFC6D7" font-family="Manrope, Arial" font-size="16">Theme model</text>
  <text x="386" y="584" fill="#AFC6D7" font-family="Manrope, Arial" font-size="16">Sentiment per theme</text>
  <text x="106" y="528" fill="#EAF5FF" font-family="Sora, Arial" font-size="22" font-weight="700">Ops layer</text>
  <text x="106" y="558" fill="#AFC6D7" font-family="Manrope, Arial" font-size="16">CI/CD and Docker</text>
  <text x="106" y="584" fill="#AFC6D7" font-family="Manrope, Arial" font-size="16">Health and metrics</text>
  <rect x="310" y="320" width="360" height="120" rx="26" fill="#102839" stroke="#2A4A60"/>
  <text x="346" y="364" fill="#F4FBFF" font-family="Sora, Arial" font-size="28" font-weight="700">ReviewAnalysisService</text>
  <text x="346" y="398" fill="#B7CDDB" font-family="Manrope, Arial" font-size="18">Single orchestration point for inference, evaluation and governance</text>
</svg>
