<svg width="920" height="720" viewBox="0 0 920 720" fill="none" xmlns="http://www.w3.org/2000/svg">
  <defs>
    <linearGradient id="opsbg" x1="40" y1="40" x2="820" y2="650" gradientUnits="userSpaceOnUse">
      <stop stop-color="#102436"/>
      <stop offset="1" stop-color="#08131D"/>
    </linearGradient>
    <linearGradient id="loop" x1="148" y1="220" x2="744" y2="510" gradientUnits="userSpaceOnUse">
      <stop stop-color="#1CD7B5"/>
      <stop offset="1" stop-color="#69D0FF"/>
    </linearGradient>
  </defs>
  <rect x="28" y="26" width="864" height="668" rx="34" fill="url(#opsbg)" stroke="#294155"/>
  <circle cx="458" cy="360" r="170" stroke="url(#loop)" stroke-width="10" stroke-dasharray="18 18"/>
  <rect x="354" y="300" width="208" height="120" rx="26" fill="#11293A" stroke="#2E4B60"/>
  <text x="391" y="346" fill="#EEF7FD" font-family="Sora, Arial" font-size="28" font-weight="700">Ops core</text>
  <text x="385" y="380" fill="#B8CDDB" font-family="Manrope, Arial" font-size="18">CI, metrics, reports, deployment</text>
  <rect x="124" y="112" width="184" height="108" rx="24" fill="#0E2231" stroke="#2A4A5F"/>
  <rect x="612" y="112" width="184" height="108" rx="24" fill="#0E2231" stroke="#2A4A5F"/>
  <rect x="124" y="504" width="184" height="108" rx="24" fill="#0E2231" stroke="#2A4A5F"/>
  <rect x="612" y="504" width="184" height="108" rx="24" fill="#0E2231" stroke="#2A4A5F"/>
  <text x="150" y="156" fill="#F0F8FD" font-family="Sora, Arial" font-size="22" font-weight="700">Evaluation</text>
  <text x="150" y="186" fill="#B8CDDB" font-family="Manrope, Arial" font-size="16">Offline metrics</text>
  <text x="640" y="156" fill="#F0F8FD" font-family="Sora, Arial" font-size="22" font-weight="700">Monitoring</text>
  <text x="640" y="186" fill="#B8CDDB" font-family="Manrope, Arial" font-size="16">Health and counters</text>
  <text x="150" y="548" fill="#F0F8FD" font-family="Sora, Arial" font-size="22" font-weight="700">Delivery</text>
  <text x="150" y="578" fill="#B8CDDB" font-family="Manrope, Arial" font-size="16">Docker and Pages</text>
  <text x="640" y="548" fill="#F0F8FD" font-family="Sora, Arial" font-size="22" font-weight="700">Governance</text>
  <text x="640" y="578" fill="#B8CDDB" font-family="Manrope, Arial" font-size="16">Artifacts and manifests</text>
</svg>
